<svg enable-background="new 0 0 256 256" height="512" viewBox="0 0 256 256" width="512" xmlns="http://www.w3.org/2000/svg"><g id="Layer_70"><g><g><g><path d="m191.044 27.164h-53.305c-1.877 0-3.398 1.521-3.398 3.398v69.425c1.298 1.659 2.19 3.646 2.492 5.806.007.048.013.096.019.144.346 2.703 2.639 4.609 5.362 4.494.68-.029 1.374-.002 2.079.084 5.55.68 10.045 5.232 10.664 10.789.421 3.781-.88 7.26-3.211 9.77h1.224c4.909-7.158 13.144-11.855 22.478-11.855 5.615 0 10.831 1.7 15.167 4.611.982-1.956 2.283-3.734 3.828-5.278v-87.99c-.001-1.877-1.522-3.398-3.399-3.398z" fill="#edf4fc"/></g></g><g><g><path d="m154.957 121.304c-.619-5.557-5.114-10.109-10.664-10.789-.704-.086-1.399-.113-2.079-.084-2.723.115-5.015-1.792-5.362-4.494-.006-.048-.013-.096-.019-.144-.761-5.452-5.241-9.844-10.709-10.476-.686-.079-1.363-.102-2.025-.072-2.698.121-4.989-1.756-5.32-4.436-.051-.413-.122-.828-.216-1.247-1.048-4.683-4.884-8.406-9.6-9.293-4.106-.772-7.929.501-10.643 2.973-1.872 1.707-4.754 1.707-6.626 0-2.714-2.473-6.537-3.745-10.643-2.973-4.716.886-8.552 4.61-9.6 9.293-.094.419-.166.835-.216 1.247-.331 2.68-2.622 4.557-5.32 4.436-.662-.03-1.339-.007-2.025.072-5.468.633-9.948 5.025-10.709 10.476-.007.048-.013.096-.02.144-.346 2.703-2.639 4.609-5.362 4.494-.68-.029-1.374-.002-2.079.084-.153.019-.303.052-.454.076l13.151 13.151c-.984-4.788.091-9.932 3.335-13.989.832-1.04 2.385-1.13 3.326-.188l20.727 20.727c.231.23.397.498.506.783h65.436c2.33-2.511 3.631-5.991 3.21-9.771z" fill="#fc657e"/></g></g><g><g><path d="m42.866 80.313c-.522-.872-1.538-1.355-2.544-1.209-3.868.562-7.392 2.976-9.195 6.771s-1.449 8.051.559 11.405c.522.873 1.538 1.355 2.544 1.209 3.868-.562 7.392-2.976 9.195-6.771s1.449-8.051-.559-11.405z" fill="#b2e26d"/></g></g><g><g><path d="m154.957 121.304c-.619-5.557-5.114-10.109-10.664-10.789-.704-.086-1.399-.113-2.079-.084-2.723.115-5.015-1.792-5.362-4.494-.006-.048-.013-.096-.019-.144-.761-5.452-5.241-9.844-10.709-10.476-.686-.079-1.363-.102-2.025-.072-2.698.121-4.989-1.756-5.32-4.436-.051-.413-.122-.828-.216-1.247-1.048-4.683-4.884-8.406-9.6-9.293-4.106-.772-7.929.501-10.643 2.973-1.872 1.707-4.754 1.707-6.626 0-2.714-2.473-6.537-3.745-10.643-2.973-4.716.886-8.552 4.61-9.6 9.293-.094.419-.166.835-.216 1.247-.331 2.68-2.622 4.557-5.32 4.436-.662-.03-1.339-.007-2.025.072-5.468.633-9.948 5.025-10.709 10.476-.007.048-.013.096-.02.144-.346 2.703-2.639 4.609-5.362 4.494-.68-.029-1.374-.002-2.079.084-.153.019-.303.052-.454.076l13.151 13.151c-.984-4.788.091-9.932 3.335-13.989.832-1.04 2.385-1.13 3.326-.188l20.727 20.727c.231.23.397.498.506.783h65.436c2.33-2.511 3.631-5.991 3.21-9.771z" fill="#b2e26d"/></g></g><g><g><path d="m134.341 48.571v51.416c1.298 1.659 2.19 3.646 2.492 5.806.007.048.013.096.019.144.346 2.703 2.639 4.609 5.362 4.494.68-.029 1.374-.002 2.079.084 5.55.68 10.045 5.232 10.664 10.789.421 3.781-.88 7.26-3.211 9.77h1.224c4.909-7.158 13.144-11.855 22.478-11.855 5.615 0 10.831 1.7 15.167 4.611.982-1.956 2.283-3.734 3.828-5.278v-69.981z" fill="#9be5f9"/></g></g><g><g><path d="m238.385 86.811c-4.053-1.676-8.836-1.368-12.751 1.259s-6.014 6.936-6.001 11.321c.004 1.141.706 2.189 1.761 2.625 4.053 1.676 8.836 1.368 12.751-1.259s6.014-6.935 6.001-11.321c-.003-1.141-.706-2.189-1.761-2.625z" fill="#b2e26d"/></g></g><g><g><path d="m175.447 119.219c-15.045 0-27.241 12.196-27.241 27.241s12.196 27.241 27.241 27.241c.923 0 1.836-.047 2.736-.137l18.581-15.536c1.277-1.068 2.729-1.752 4.229-2.096 1.094-2.95 1.695-6.141 1.695-9.472 0-15.045-12.196-27.241-27.241-27.241z" fill="#f5c84c"/></g></g><g><g><path d="m233.147 112.566c-1.926 0-3.755.408-5.407 1.142-4.254 1.889-9.22 1.889-13.474 0-1.652-.734-3.482-1.142-5.408-1.142-8.036 0-14.928 4.658-18.243 11.264 7.282 4.89 12.074 13.199 12.074 22.629 0 3.333-.603 6.522-1.7 9.473 4.174-.958 8.738.792 11.054 4.802l1.543 2.673 3.696-2.134c2.194-1.267 2.953-4.098 1.686-6.292l-.026-.045c-2.394-4.146-.731-9.521 3.756-11.53 3.214-1.439 7.102-.589 9.42 2.063.34.389.635.797.885 1.217.93 1.56 2.679 2.466 4.468 2.152 3.262-.572 6.702.89 8.472 3.955.173.3.307.61.438.92l5.469-13.044c5.854-13.961-4.693-28.103-18.703-28.103z" fill="#fc657e"/></g></g><g><g><path d="m148.207 146.46c0-5.71 1.76-11.007 4.763-15.385h-146.878c-2.436 0-4.164 2.374-3.416 4.692l7.36 22.812c2.908 9.013 11.298 15.122 20.769 15.122h123.618c3.526 0 6.9-.849 9.899-2.377-9.496-4.256-16.115-13.784-16.115-24.864z" fill="#edf4fc"/></g></g><g><g><path d="m85.804 130.291-20.727-20.727c-.941-.942-2.495-.851-3.326.188-5.026 6.287-4.879 15.189.144 21.321h24.415c-.109-.283-.276-.551-.506-.782z" fill="#f5c84c"/></g></g><g><g><path d="m58.416 123.742-14.177-14.177c-.941-.942-2.495-.851-3.327.188-5.026 6.287-4.879 15.189.144 21.321h20.848c-1.779-2.177-2.947-4.699-3.488-7.332z" fill="#f5c84c"/></g></g><g><g><path d="m37.578 123.742-14.177-14.177c-.942-.942-2.495-.851-3.327.188-5.026 6.287-4.879 15.189.144 21.321h20.848c-1.78-2.177-2.947-4.699-3.488-7.332z" fill="#f5c84c"/></g></g><g><g><path d="m118.467 113.077c-6.64 0-12.023 5.383-12.023 12.022 0 2.177.587 4.213 1.599 5.975h20.847c1.012-1.761 1.599-3.798 1.599-5.975 0-6.639-5.383-12.022-12.022-12.022z" fill="#f98fa6"/></g></g><g><g><path d="m108.734 118.061c-2.185-3.015-5.724-4.984-9.733-4.984-6.64 0-12.023 5.383-12.023 12.022 0 2.177.587 4.213 1.599 5.975h19.476c-1.016-1.761-1.61-3.795-1.61-5.975.001-2.631.856-5.058 2.291-7.038z" fill="#fc657e"/></g></g><g><g><path d="m222.115 178.182-10.073-17.447c-3.147-5.451-10.449-6.745-15.278-2.708l-51.78 43.295c-7.377 6.169-.578 17.945 8.452 14.64l63.384-23.195c5.912-2.163 8.442-9.134 5.295-14.585z" fill="#fca265"/></g></g><g><g><path d="m244.784 167.095c-.885-1.605-.827-3.583.349-4.989 2.124-2.539 2.578-6.247.809-9.312-1.77-3.065-5.21-4.527-8.472-3.955-1.789.314-3.538-.593-4.468-2.153-.251-.42-.545-.828-.885-1.217-2.318-2.652-6.206-3.502-9.42-2.063-4.488 2.009-6.15 7.384-3.756 11.53l.026.045c1.267 2.194.508 5.026-1.686 6.292l-3.696 2.134 6.987 12.102 3.941-2.275c2.068-1.194 4.712-.485 5.905 1.582 1.848 3.201 5.565 4.985 9.159 4.124 5.32-1.274 7.659-7.343 5.226-11.81z" fill="#b2e26d"/></g></g><g><g><path d="m211.945 93.382c-1.17-.731-2.712-.377-3.445.795-.731 1.171-.376 2.714.795 3.445.09.056 8.987 5.731 8.987 15.662 0 1.381 1.119 2.5 2.5 2.5s2.5-1.119 2.5-2.5c0-12.672-10.874-19.613-11.337-19.902z"/></g></g><g><g><g><g><path d="m191.044 24.664h-53.305c-3.252 0-5.898 2.646-5.898 5.897v69.425c0 .559.188 1.102.531 1.541 1.067 1.363 1.754 2.958 1.985 4.61 0 .003.015.114.016.117.509 3.973 3.926 6.855 7.944 6.674.559-.022 1.116 0 1.671.067 4.423.542 7.99 4.152 8.484 8.584.322 2.901-.586 5.668-2.56 7.793-.677.729-.857 1.789-.46 2.7.397.912 1.298 1.501 2.292 1.501h1.224c.824 0 1.596-.406 2.062-1.086 4.625-6.743 12.258-10.77 20.417-10.77 4.931 0 9.693 1.448 13.773 4.187.597.4 1.335.523 2.029.343.694-.183 1.276-.655 1.599-1.296.852-1.697 1.981-3.255 3.359-4.631.47-.469.733-1.104.733-1.769v-87.989c.001-3.252-2.644-5.898-5.896-5.898zm.897 92.886c-.813.888-1.55 1.831-2.206 2.821-4.365-2.396-9.255-3.652-14.288-3.652-6.55 0-12.817 2.157-17.914 6.004.002-.563-.028-1.129-.092-1.695-.747-6.708-6.149-12.173-12.846-12.994-.618-.075-1.241-.113-1.86-.113-.209 0-.418.004-.626.013-1.449.059-2.598-.914-2.775-2.3l-.025-.187c-.312-2.234-1.16-4.388-2.468-6.279v-68.606c0-.495.403-.897.898-.897h53.305c.495 0 .897.402.897.897z"/></g></g></g></g><g><g><path d="m190.056 177.463-4.187-7.251c-.69-1.196-2.222-1.605-3.415-.915-1.195.69-1.605 2.22-.915 3.415l4.187 7.251c.463.802 1.304 1.25 2.167 1.25.425 0 .854-.107 1.248-.335 1.195-.69 1.605-2.22.915-3.415z"/></g></g><g><g><path d="m208.308 177.976-1.794-3.107c-.69-1.196-2.221-1.605-3.415-.915-1.195.69-1.605 2.219-.915 3.415l1.794 3.107c.463.802 1.304 1.25 2.167 1.25.425 0 .854-.107 1.248-.335 1.195-.691 1.605-2.219.915-3.415z"/></g></g><g><g><path d="m170.854 196.837-1.794-3.107c-.69-1.196-2.222-1.605-3.415-.915-1.195.69-1.605 2.219-.915 3.415l1.794 3.107c.463.802 1.304 1.25 2.167 1.25.425 0 .854-.107 1.248-.335 1.195-.69 1.605-2.219.915-3.415z"/></g></g><g><g><path d="m188.229 200.617-3.588-6.216c-.691-1.197-2.222-1.605-3.415-.915-1.195.69-1.605 2.219-.915 3.415l3.588 6.216c.463.802 1.304 1.25 2.167 1.25.425 0 .854-.107 1.248-.335 1.196-.69 1.606-2.219.915-3.415z"/></g></g><g><g><path d="m117.206 201.95h-2.4v-2.3c0-1.8-1.4-3.2-3.2-3.2-1.7 0-3.2 1.4-3.2 3.1v2.4h-2.3c-1.8 0-3.2 1.4-3.2 3.2-.1 1.7 1.3 3.2 3.2 3.2h2.3v2.3c0 1.8 1.4 3.2 3.2 3.2 1.7 0 3.2-1.4 3.2-3.1v-2.4h2.3c1.8 0 3.2-1.4 3.2-3.2 0-1.7-1.4-3.2-3.1-3.2z" fill="#70d6f9"/></g></g><g><g><circle cx="127.506" cy="228.75" fill="#f5c84c" r="3.4"/></g></g><g><g><circle cx="106.506" cy="27.25" fill="#fc657e" r="3.4"/></g></g><g><g><path d="m222.288 66.05c-3.1-.6-5.6-3-6.2-6.1 0-.1-.3-.1-.3 0-.6 3.1-3.1 5.5-6.2 6.1-.1 0-.1.2 0 .3 3.1.6 5.6 3 6.2 6.1 0 .1.3.1.3 0 .6-3.1 3.1-5.5 6.2-6.1.1-.1.1-.3 0-.3z" fill="#87d147"/></g></g><g><g><path d="m92.288 48.05c-4.5-.8-8-4.3-8.9-8.7 0-.2-.4-.2-.4 0-.9 4.4-4.4 7.9-8.9 8.7-.2 0-.2.3 0 .4 4.5.8 8 4.3 8.9 8.7 0 .2.4.2.4 0 .9-4.4 4.4-7.9 8.9-8.7.2-.1.2-.4 0-.4z" fill="#f5c84c"/></g></g><g><g><g><g><path d="m157.441 121.027c-.747-6.708-6.149-12.173-12.846-12.994-.827-.101-1.662-.136-2.486-.101-1.449.059-2.598-.914-2.775-2.3l-.025-.187c-.915-6.55-6.339-11.854-12.898-12.613-.813-.094-1.63-.124-2.424-.086-1.38.061-2.559-.881-2.727-2.245-.062-.498-.148-.998-.258-1.488-1.263-5.636-5.915-10.139-11.578-11.203-4.664-.876-9.326.429-12.788 3.583-.915.832-2.346.831-3.259 0-3.461-3.154-8.123-4.459-12.789-3.583-5.663 1.065-10.316 5.567-11.577 11.204-.108.483-.195.982-.259 1.487-.168 1.364-1.328 2.287-2.724 2.245-.8-.039-1.614-.007-2.427.086-6.559.759-11.982 6.063-12.896 12.605l-.024.18c-.18 1.4-1.322 2.368-2.778 2.314-.822-.036-1.659 0-2.483.101-.146.018-.292.042-.437.069l-.115.021c-.927.149-1.691.806-1.98 1.698-.289.894-.053 1.873.611 2.537l13.15 13.15c.779.781 1.979.957 2.953.434.972-.523 1.485-1.623 1.264-2.704-.85-4.138.118-8.381 2.657-11.693l20.472 20.472c.383.94 1.297 1.558 2.315 1.558h65.436c.695 0 1.358-.289 1.832-.799 2.935-3.16 4.343-7.442 3.863-11.748zm-6.858 7.547h-62.961c-.017-.017-.034-.034-.051-.051l-20.727-20.727c-.949-.951-2.253-1.45-3.608-1.378-1.345.075-2.598.722-3.438 1.772-2.188 2.735-3.562 5.965-4.043 9.354l-5.073-5.073c2.619-.951 4.581-3.284 4.957-6.218.001-.005.016-.112.016-.117.605-4.33 4.188-7.837 8.52-8.338.548-.062 1.097-.078 1.627-.059 4.016.2 7.426-2.669 7.912-6.622.042-.335.1-.673.176-1.013.831-3.715 3.895-6.681 7.622-7.382 3.105-.584 6.207.277 8.498 2.364 2.846 2.596 7.144 2.597 9.993 0 2.291-2.087 5.394-2.947 8.497-2.364 3.728.7 6.791 3.667 7.623 7.382.075.338.133.674.174 1.008.489 3.959 3.879 6.844 7.916 6.627.531-.025 1.076-.005 1.624.059 4.332.501 7.915 4.008 8.521 8.338 0 .003.015.114.016.117.509 3.973 3.926 6.855 7.944 6.674.559-.022 1.116 0 1.671.067 4.423.542 7.99 4.152 8.484 8.584.283 2.552-.385 4.999-1.89 6.996z"/></g></g></g></g><g><g><g><path d="m45.012 79.029c0-.001-.001-.001-.001-.002-1.049-1.749-3.027-2.696-5.048-2.396-4.85.703-8.996 3.758-11.094 8.172-2.097 4.412-1.846 9.557.672 13.763.921 1.537 2.563 2.45 4.318 2.45.242 0 .485-.017.729-.053 4.85-.705 8.997-3.76 11.094-8.173 2.096-4.411 1.845-9.556-.67-13.761zm-3.845 11.616c-1.378 2.898-4.105 4.906-7.336 5.352-1.656-2.767-1.823-6.149-.446-9.048 1.378-2.899 4.105-4.906 7.297-5.37.011 0 .033.011.04.02 1.655 2.766 1.821 6.148.445 9.046z"/></g></g></g><g><g><g><g><path d="m157.441 121.027c-.747-6.708-6.149-12.173-12.846-12.994-.827-.101-1.662-.136-2.486-.101-1.449.059-2.598-.914-2.775-2.3l-.025-.187c-.915-6.55-6.339-11.854-12.898-12.613-.813-.094-1.63-.124-2.424-.086-1.38.061-2.559-.881-2.727-2.245-.062-.498-.148-.998-.258-1.488-1.263-5.636-5.915-10.139-11.578-11.203-4.664-.876-9.326.429-12.788 3.583-.915.832-2.346.831-3.259 0-3.461-3.154-8.123-4.459-12.789-3.583-5.663 1.065-10.316 5.567-11.577 11.204-.108.483-.195.982-.259 1.487-.168 1.364-1.328 2.287-2.724 2.245-.8-.039-1.614-.007-2.427.086-6.559.759-11.982 6.063-12.896 12.605l-.024.18c-.18 1.4-1.322 2.368-2.778 2.314-.822-.036-1.659 0-2.483.101-.146.018-.292.042-.437.069l-.115.021c-.927.149-1.691.806-1.98 1.698-.289.894-.053 1.873.611 2.537l13.15 13.15c.779.781 1.979.957 2.953.434.972-.523 1.485-1.623 1.264-2.704-.85-4.138.118-8.381 2.657-11.693l20.472 20.472c.383.94 1.297 1.558 2.315 1.558h65.436c.695 0 1.358-.289 1.832-.799 2.935-3.16 4.343-7.442 3.863-11.748zm-6.858 7.547h-62.961l-20.777-20.777c-.949-.951-2.253-1.45-3.608-1.378-1.345.075-2.598.722-3.438 1.772-2.188 2.735-3.562 5.965-4.043 9.354l-5.073-5.073c2.619-.951 4.581-3.284 4.957-6.218.001-.005.016-.112.016-.117.605-4.33 4.188-7.837 8.52-8.338.548-.062 1.097-.078 1.627-.059 4.016.2 7.426-2.669 7.912-6.622.042-.335.1-.673.176-1.013.831-3.715 3.895-6.681 7.622-7.382 3.105-.584 6.207.277 8.498 2.364 2.846 2.596 7.144 2.597 9.993 0 2.291-2.087 5.394-2.947 8.497-2.364 3.728.7 6.791 3.667 7.623 7.382.075.338.133.674.174 1.008.489 3.959 3.879 6.844 7.916 6.627.531-.025 1.076-.005 1.624.059 4.332.501 7.915 4.008 8.521 8.338 0 .003.015.114.016.117.509 3.973 3.926 6.855 7.944 6.674.559-.022 1.116 0 1.671.067 4.423.542 7.99 4.152 8.484 8.584.282 2.551-.386 4.998-1.891 6.995z"/></g></g></g></g><g><g><g><path d="m194.441 46.07h-60.101c-1.381 0-2.5 1.119-2.5 2.5v51.416c0 .559.188 1.102.531 1.541 1.067 1.363 1.754 2.958 1.985 4.61 0 .003.015.114.016.117.509 3.973 3.926 6.855 7.944 6.674.555-.022 1.115-.001 1.671.067 4.423.542 7.99 4.152 8.484 8.584.322 2.901-.586 5.668-2.56 7.793-.677.729-.857 1.789-.46 2.7.397.912 1.298 1.501 2.292 1.501h1.224c.824 0 1.596-.406 2.062-1.086 4.625-6.743 12.258-10.77 20.417-10.77 4.931 0 9.693 1.448 13.773 4.187.597.4 1.335.523 2.029.343.694-.183 1.276-.655 1.599-1.296.852-1.697 1.981-3.255 3.359-4.631.47-.469.733-1.104.733-1.769v-69.981c.002-1.381-1.117-2.5-2.498-2.5zm-2.5 71.48c-.813.888-1.55 1.831-2.206 2.821-4.365-2.396-9.255-3.652-14.288-3.652-6.55 0-12.817 2.157-17.914 6.004.002-.563-.028-1.129-.092-1.695-.747-6.708-6.149-12.173-12.846-12.994-.618-.075-1.241-.113-1.86-.113-.209 0-.418.004-.626.013-1.449.059-2.598-.914-2.775-2.3l-.025-.187c-.312-2.234-1.16-4.388-2.468-6.279v-48.098h55.101v66.48z"/></g></g></g><g><g><g><path d="m239.341 84.501c-4.987-2.061-10.632-1.503-15.1 1.493-4.467 2.996-7.124 8.007-7.107 13.403.006 2.167 1.304 4.102 3.306 4.929 1.99.822 4.084 1.229 6.167 1.229 3.138 0 6.248-.921 8.932-2.722 4.467-2.997 7.124-8.008 7.108-13.404 0-.001 0-.001 0-.002-.008-2.165-1.305-4.099-3.306-4.926zm-6.588 14.18c-3.076 2.063-6.965 2.447-10.404 1.024-.122-.051-.215-.188-.215-.322-.012-3.721 1.817-7.174 4.893-9.236 1.848-1.239 3.988-1.872 6.148-1.872 1.437 0 2.883.279 4.256.848.121.05.216.191.216.322.01 3.72-1.82 7.173-4.894 9.236z"/></g></g></g><g><g><g><path d="m175.447 116.719c-16.398 0-29.74 13.342-29.74 29.741 0 16.398 13.342 29.74 29.74 29.74.989 0 1.993-.05 2.984-.149.499-.05.971-.248 1.355-.569l18.581-15.536c.926-.774 1.997-1.305 3.184-1.577.821-.188 1.492-.777 1.785-1.566 1.229-3.312 1.852-6.791 1.852-10.342 0-16.4-13.341-29.742-29.741-29.742zm23.603 37.176c-1.419.497-2.723 1.239-3.889 2.215l-17.976 15.03c-.581.04-1.163.061-1.738.061-13.642 0-24.74-11.099-24.74-24.74 0-13.643 11.099-24.741 24.74-24.741 13.643 0 24.741 11.099 24.741 24.741 0 2.54-.382 5.034-1.138 7.434z"/></g></g></g><g><g><g><path d="m252.243 120.313c-4.268-6.416-11.406-10.247-19.097-10.247-2.232 0-4.394.456-6.422 1.356-3.583 1.592-7.86 1.592-11.445 0-2.028-.9-4.189-1.356-6.422-1.356-8.718 0-16.564 4.844-20.479 12.643-.564 1.125-.204 2.495.841 3.196 6.868 4.612 10.969 12.296 10.969 20.555 0 2.952-.52 5.847-1.544 8.602-.32.861-.142 1.829.465 2.521.606.69 1.537.997 2.438.787 3.289-.759 6.644.696 8.329 3.616l1.543 2.672c.463.802 1.304 1.25 2.167 1.25.425 0 .854-.107 1.248-.335l3.696-2.134c3.393-1.959 4.56-6.313 2.574-9.752-.798-1.383-.974-3.048-.481-4.568.499-1.541 1.599-2.759 3.095-3.43 2.231-.997 4.91-.411 6.515 1.425.236.271.445.558.622.854 1.499 2.513 4.267 3.821 7.046 3.334 2.333-.413 4.693.692 5.875 2.741.121.209.21.428.302.645.392.925 1.298 1.526 2.303 1.526h.004c1.006-.001 1.913-.605 2.302-1.533l5.47-13.044c3.014-7.191 2.317-14.963-1.914-21.324zm-2.698 19.39-3.788 9.035c-2.371-1.997-5.563-2.915-8.719-2.362-.719.133-1.462-.254-1.888-.969-.329-.552-.716-1.083-1.151-1.583-3.041-3.478-8.11-4.586-12.323-2.699-2.765 1.238-4.882 3.59-5.809 6.453-.928 2.865-.597 6.002.935 8.653.58 1.006.234 2.297-.771 2.877l-1.531.884-.293-.507c-2.106-3.648-5.776-5.914-9.794-6.268.516-2.207.775-4.468.775-6.758 0-9.146-4.182-17.703-11.293-23.328 3.291-5.021 8.854-8.065 14.962-8.065 1.529 0 3.008.312 4.393.927 4.926 2.188 10.578 2.188 15.504 0 1.385-.615 2.863-.927 4.393-.927 6.013 0 11.596 2.997 14.934 8.016 3.286 4.943 3.82 11.001 1.464 16.621z"/></g></g></g><g><g><g><path d="m165.345 169.042c-8.893-3.984-14.638-12.849-14.638-22.582 0-5.016 1.495-9.847 4.323-13.972.525-.766.583-1.759.15-2.579-.433-.821-1.284-1.335-2.212-1.335h-146.875c-1.97 0-3.765.913-4.924 2.506-1.159 1.592-1.478 3.58-.872 5.453l7.36 22.813c3.251 10.081 12.553 16.854 23.147 16.854h123.619c3.817 0 7.633-.916 11.034-2.649.858-.438 1.389-1.328 1.364-2.29-.023-.962-.598-1.825-1.476-2.219zm-10.922 2.158h-123.619c-8.415 0-15.806-5.381-18.389-13.39l-7.36-22.813c-.147-.459.034-.808.156-.975.122-.168.399-.449.882-.449h142.545c-1.927 3.997-2.931 8.38-2.931 12.886 0 9.779 4.824 18.829 12.648 24.333-1.292.271-2.612.408-3.932.408z"/></g></g></g><g><g><g><path d="m88.646 130.186c-.239-.629-.601-1.188-1.075-1.662l-20.727-20.727c-.949-.951-2.253-1.45-3.608-1.378-1.345.075-2.598.722-3.438 1.772-5.689 7.115-5.622 17.405.161 24.467.476.58 1.186.916 1.935.916h24.416c.822 0 1.592-.404 2.058-1.081.466-.676.57-1.539.278-2.307zm-25.508-1.612c-3.544-5.112-3.424-12.058.385-17.029l17.029 17.029z"/></g></g></g><g><g><g><path d="m63.84 129.492c-1.477-1.808-2.506-3.97-2.975-6.254-.099-.479-.336-.919-.682-1.265l-14.177-14.177c-.949-.951-2.265-1.45-3.606-1.378-1.346.075-2.6.721-3.441 1.772-5.688 7.116-5.62 17.406.164 24.467.475.58 1.185.916 1.934.916h20.848c.966 0 1.845-.557 2.259-1.429.413-.872.287-1.904-.324-2.652zm-21.54-.918c-3.544-5.112-3.425-12.059.385-17.029l13.453 13.454c.305 1.229.73 2.429 1.267 3.575z"/></g></g></g><g><g><g><path d="m43.002 129.491c-1.477-1.805-2.506-3.968-2.975-6.253-.099-.479-.336-.919-.682-1.265l-14.178-14.177c-.949-.951-2.253-1.45-3.608-1.378-1.345.075-2.598.722-3.438 1.772-5.689 7.115-5.622 17.405.161 24.467.476.58 1.186.916 1.935.916h20.849c.966 0 1.846-.557 2.259-1.43.414-.871.288-1.904-.323-2.652zm-21.541-.917c-3.544-5.112-3.424-12.058.385-17.029l13.454 13.454c.305 1.229.73 2.429 1.267 3.575z"/></g></g></g><g><g><g><path d="m118.467 110.577c-8.008 0-14.522 6.515-14.522 14.522 0 2.523.668 5.021 1.931 7.22.446.776 1.272 1.255 2.168 1.255h20.847c.896 0 1.722-.479 2.168-1.255 1.264-2.2 1.932-4.697 1.932-7.22-.002-8.007-6.516-14.522-14.524-14.522zm8.858 17.997h-17.718c-.437-1.106-.663-2.286-.663-3.475 0-5.251 4.271-9.522 9.522-9.522s9.522 4.271 9.522 9.522c.001 1.188-.226 2.369-.663 3.475z"/></g></g></g><g><g><g><path d="m110.759 116.594c-2.73-3.768-7.125-6.017-11.758-6.017-8.008 0-14.522 6.515-14.522 14.522 0 2.522.668 5.02 1.932 7.22.446.776 1.272 1.255 2.168 1.255h19.476c.894 0 1.719-.477 2.165-1.25s.446-1.727 0-2.5c-.834-1.444-1.274-3.078-1.274-4.725 0-2.007.628-3.934 1.814-5.572.633-.875.633-2.058-.001-2.933zm-6.386 11.98h-14.23c-.437-1.106-.664-2.287-.664-3.475 0-5.251 4.271-9.522 9.522-9.522 2.49 0 4.877.994 6.645 2.718-1.118 2.091-1.701 4.409-1.701 6.805-.001 1.172.145 2.339.428 3.474z"/></g></g></g><g><g><g><path d="m224.28 176.932-10.073-17.446c-1.869-3.239-5.054-5.471-8.736-6.124-3.686-.654-7.44.349-10.31 2.748l-51.78 43.295c-4.936 4.127-4.806 10.025-2.488 14.04 1.781 3.085 5.171 5.607 9.387 5.606 1.271 0 2.617-.229 4.017-.741l63.385-23.195c3.512-1.285 6.258-4.038 7.533-7.554s.935-7.39-.935-10.629zm-3.765 8.922c-.771 2.124-2.431 3.788-4.553 4.564l-63.385 23.195c-3.541 1.298-6.175-.628-7.354-2.67s-1.528-5.284 1.365-7.704l51.78-43.295c1.387-1.159 3.115-1.778 4.891-1.778.445 0 .894.039 1.339.118 2.226.395 4.149 1.743 5.279 3.7l10.073 17.446c1.13 1.959 1.335 4.3.565 6.424z"/></g></g></g><g><g><g><path d="m247.052 163.711c2.859-3.419 3.283-8.308 1.056-12.167-2.229-3.861-6.67-5.936-11.068-5.168-.72.133-1.463-.254-1.889-.969-.329-.552-.716-1.083-1.15-1.583-3.04-3.478-8.108-4.586-12.324-2.699-2.765 1.238-4.882 3.59-5.809 6.453-.927 2.864-.596 6.002.909 8.608l2.165-1.25-2.14 1.295c.58 1.006.234 2.297-.771 2.877l-3.696 2.134c-.574.331-.993.878-1.165 1.518-.171.641-.082 1.323.25 1.897l6.987 12.103c.69 1.196 2.222 1.605 3.415.915l3.942-2.275c.421-.243.91-.309 1.382-.183.471.126.864.428 1.107.85 2.015 3.49 5.713 5.586 9.52 5.586.796 0 1.597-.091 2.387-.28 3.202-.768 5.813-2.948 7.162-5.983 1.358-3.055 1.237-6.589-.349-9.501-.42-.765-.39-1.619.079-2.178zm-4.444 4.616c.821 1.507.875 3.388.146 5.03-.419.941-1.464 2.603-3.759 3.151-2.432.59-5.074-.625-6.411-2.943-1.264-2.186-3.562-3.409-5.921-3.409-1.156 0-2.328.294-3.399.913l-1.776 1.025-4.488-7.772 1.531-.884c3.393-1.959 4.56-6.313 2.612-9.688l-.025-.045c-.004-.007-.008-.013-.012-.02-.799-1.383-.975-3.048-.482-4.568.499-1.541 1.599-2.759 3.095-3.43 2.195-.983 4.935-.383 6.515 1.425.236.271.445.558.622.854 1.499 2.512 4.267 3.828 7.047 3.333 2.338-.405 4.692.694 5.875 2.743 1.183 2.048.957 4.644-.561 6.457-1.803 2.155-2.047 5.217-.609 7.828z"/></g></g></g></g></g></svg>