<?xml version="1.0"?>
<svg xmlns="http://www.w3.org/2000/svg" xmlns:xlink="http://www.w3.org/1999/xlink" xmlns:svgjs="http://svgjs.com/svgjs" version="1.1" width="512" height="512" x="0" y="0" viewBox="0 0 512 512" style="enable-background:new 0 0 512 512" xml:space="preserve" class=""><g><g xmlns="http://www.w3.org/2000/svg" id="Filled_outline" data-name="Filled outline"><path d="m208.587 24-102.793 288.322c-.57-.057-1.122-.18-1.7-.218-22-1.444-42.354 12.2-50.651 33.958l-25.619 67.172a56.821 56.821 0 0 0 4.058 49.394c8.835 14.972 23.426 24.178 40.018 25.272 22 1.443 42.355-12.2 50.652-33.958l25.621-67.173a56.812 56.812 0 0 0 -4.059-49.393 54.736 54.736 0 0 0 -6.525-8.8 78.031 78.031 0 0 1 31.986-29.938l39.81-125.825a242.272 242.272 0 0 0 -.798-148.813zm-88.508 350.7-25.62 67.16c-3.377 8.852-11.658 14.4-20.606 13.817a20.343 20.343 0 0 1 -16.285-10.284 23.117 23.117 0 0 1 -1.647-20.088l25.621-67.165c3.376-8.851 11.657-14.4 20.605-13.818a20.341 20.341 0 0 1 16.284 10.285 23.11 23.11 0 0 1 1.648 20.093z" fill="#1ab9b9" data-original="#f7a116" style="" class=""/><path d="m279.66 426.56c-3.25-28.98-28.9-50.23-58.32-49.33l-79.74-223.68-46.19-129.55a242.311 242.311 0 0 0 -.8 148.81l16.26 51.38 23.55 74.45a78.481 78.481 0 0 1 22.12 16.6 76.779 76.779 0 0 1 14.8 23.06l19.88 48.36a54.95 54.95 0 0 0 -24.93 49.76c2.2 30.46 30.83 54.18 62.05 51.35 29.61-2.69 51.66-26.91 51.66-55.12a54.572 54.572 0 0 0 -.34-6.09zm-53.93 29.63c-13.4 1.43-25.44-7.99-26.9-21.03s8.2-24.77 21.59-26.19 25.44 7.99 26.91 21.03-8.21 24.77-21.6 26.19z" fill="#1beaea" data-original="#ffb531" style="" class=""/><path d="m280 432.65c0 28.21-22.05 52.43-51.66 55.12-31.22 2.83-59.85-20.89-62.05-51.35a54.95 54.95 0 0 1 24.93-49.76l-19.88-48.36a76.779 76.779 0 0 0 -14.8-23.06 78.481 78.481 0 0 0 -22.12-16.6l-23.55-74.45c10.5-21.81 20.74-45.27 30.73-70.64l79.74 223.68c29.42-.9 55.07 20.35 58.32 49.33a54.572 54.572 0 0 1 .34 6.09z" fill="#23d3d3" data-original="#ffa912" style="" class=""/><path d="m448.846 272.656-88.846-16.656v-72h-48-48v72l-88.846 16.659a48 48 0 0 0 -39.154 47.177v128.164h352v-128.167a48 48 0 0 0 -39.154-47.177z" fill="#fec9a3" data-original="#fec9a3" style="" class=""/><path d="m360 240v-56h-96v56a90.2 90.2 0 0 0 96 0z" fill="#feb784" data-original="#feb784" style="" class=""/><path d="m488 319.83v136.17a32 32 0 0 1 -32 32h-288a32.143 32.143 0 0 1 -5.67-.5h-.01a32.019 32.019 0 0 1 -26.32-31.5v-136.16a48 48 0 0 1 39.15-47.18l72.85-13.66 16-3 48 16.47 48-16.47 48 9 40.85 7.66c1.11.21 2.2.45 3.27.73a48 48 0 0 1 35.88 46.44z" fill="#e0e0de" data-original="#e0e0de" style="" class=""/><path d="m280 408v-146.509l-16-5.491-16 3v149z" fill="#d6d6d4" data-original="#d6d6d4" style="" class=""/><path d="m488 319.83v136.17a32 32 0 0 1 -32 32h-288a32.143 32.143 0 0 1 -5.67-.5c96.53-18.28 245.24-69.93 289.79-214.11a48 48 0 0 1 35.88 46.44z" fill="#d6d6d4" data-original="#d6d6d4" style="" class=""/><path d="m296 272.473h32v215.527h-32z" fill="#3d4d63" data-original="#3d4d63" style="" class=""/><path d="m296 280v20.8l16-12.8 16 12.8v-20.8l-16-7.527z" fill="#374559" data-original="#374559" style="" class=""/><path d="m440 368-48 24-256 16v48a32 32 0 0 0 32 32h40l191.839-41.123 48.161-6.877h40v-72z" fill="#feb784" data-original="#feb784" style="" class=""/><path d="m232 392-48-24h-48v72h40l48.161 6.88 7.839 1.12 184 40h40a32 32 0 0 0 32-32v-48z" fill="#fec9a3" data-original="#fec9a3" style="" class=""/><path d="m387.2 488h-22.4a4.8 4.8 0 0 1 -4.8-4.8v-251.2a32 32 0 0 1 32 32v219.2a4.8 4.8 0 0 1 -4.8 4.8z" fill="#1beaea" data-original="#ffb531" style="" class=""/><path d="m360 344v139.2a4.8 4.8 0 0 0 4.8 4.8h22.4a4.8 4.8 0 0 0 4.8-4.8v-171.2z" fill="#23d3d3" data-original="#ffa912" style="" class=""/><path d="m360 472h32a0 0 0 0 1 0 0v11.2a4.8 4.8 0 0 1 -4.8 4.8h-22.4a4.8 4.8 0 0 1 -4.8-4.8v-11.2a0 0 0 0 1 0 0z" fill="#e0e0de" data-original="#e0e0de" style="" class=""/><path d="m264 232a0 0 0 0 1 0 0v187.2a4.8 4.8 0 0 1 -4.8 4.8h-22.4a4.8 4.8 0 0 1 -4.8-4.8v-155.2a32 32 0 0 1 32-32z" fill="#1beaea" data-original="#ffb531" style="" class=""/><path d="m232 392v27.2a4.8 4.8 0 0 0 4.8 4.8h22.4a4.8 4.8 0 0 0 4.8-4.8v-59.2z" fill="#23d3d3" data-original="#ffa912" style="" class=""/><path d="m232 408h32a0 0 0 0 1 0 0v11.2a4.8 4.8 0 0 1 -4.8 4.8h-22.4a4.8 4.8 0 0 1 -4.8-4.8v-11.2a0 0 0 0 1 0 0z" fill="#e0e0de" data-original="#e0e0de" style="" class=""/><path d="m240 424h19.2a4.8 4.8 0 0 0 4.8-4.8v-11.2h-8z" fill="#d6d6d4" data-original="#d6d6d4" style="" class=""/><path d="m368 488h19.2a4.8 4.8 0 0 0 4.8-4.8v-11.2h-8z" fill="#d6d6d4" data-original="#d6d6d4" style="" class=""/><path d="m248 424v10.575a5.425 5.425 0 0 0 5.425 5.425h21.15a5.425 5.425 0 0 0 5.425-5.425v-39.575l-16-1v25.2a4.8 4.8 0 0 1 -4.8 4.8z" fill="#fec093" data-original="#fec093" style="" class=""/><path d="m392.001 402v80.782l16 3.479v-83.261z" fill="#fec093" data-original="#fec093" style="" class=""/><path d="m408 265v111h-16v-114z" fill="#d6d6d4" data-original="#d6d6d4" style="" class=""/><path d="m310.51 24 30.013 40h19.84l-30.013-40z" fill="#82462a" data-original="#82462a" style="" class=""/><path d="m261.847 24 31.05 40h20.095l-31.051-40z" fill="#82462a" data-original="#82462a" style="" class=""/><path d="m384 96v56a72 72 0 0 1 -144 0v-56a72.006 72.006 0 0 1 72-72c.89 0 1.79.02 2.67.05a72.005 72.005 0 0 1 69.33 71.95z" fill="#fec9a3" data-original="#fec9a3" style="" class=""/><path d="m384 96v56a72.035 72.035 0 0 1 -58.26 70.69 87.683 87.683 0 0 0 26.26-62.69v-64a88.12 88.12 0 0 0 -37.33-71.95 72.005 72.005 0 0 1 69.33 71.95z" fill="#fec093" data-original="#fec093" style="" class=""/><path d="m384 104v66.86a64.032 64.032 0 0 1 -5.17 25.21l-12.6 29.38a23.994 23.994 0 0 1 -22.06 14.55h-64.34a23.984 23.984 0 0 1 -22.06-14.55l-12.6-29.38a64.032 64.032 0 0 1 -5.17-25.21v-66.86l29.7 51.97a7.991 7.991 0 0 0 6.94 4.03h70.72a7.908 7.908 0 0 0 4.64-1.5 7.768 7.768 0 0 0 2.3-2.53z" fill="#82462a" data-original="#82462a" style="" class=""/><path d="m384 104v66.86a64.032 64.032 0 0 1 -5.17 25.21l-12.6 29.38a23.994 23.994 0 0 1 -22.06 14.55h-43.47a88 88 0 0 0 51.3-80v-1.5a7.768 7.768 0 0 0 2.3-2.53z" fill="#743b20" data-original="#743b20" style=""/><path d="m240 120v-32c0-26.51 17.909-48 40-48l-1.407 5.068c-7.843 28.232-21.056 53.888-38.593 74.932z" fill="#82462a" data-original="#82462a" style="" class=""/><path d="m384 120v-55.015a25.754 25.754 0 0 0 -32-24.985v24s14.463 34.956 32 56z" fill="#743b20" data-original="#743b20" style=""/><path d="m384 58.42v5.58h-104a40 40 0 0 1 -40-40h109.58a34.415 34.415 0 0 1 34.42 34.42z" fill="#82462a" data-original="#82462a" style="" class=""/><path d="m384 58.42v5.58h-38a88.326 88.326 0 0 0 -31.41-40h34.99a34.415 34.415 0 0 1 34.42 34.42z" fill="#743b20" data-original="#743b20" style=""/><path d="m391.845 104h-7.845v48h7.845a24 24 0 0 0 24.155-23.845v-.309a24 24 0 0 0 -24.155-23.846z" fill="#feb784" data-original="#feb784" style="" class=""/><path d="m232.087 104h-.395a24 24 0 0 0 0 48h8.308v-47.995z" fill="#feb784" data-original="#feb784" style="" class=""/><path d="m360 255.997-48 16.476 36.258 29.864z" fill="#ebebe9" data-original="#ebebe9" style="" class=""/><path d="m312 272.473-48-16.473 11.741 46.338z" fill="#ebebe9" data-original="#ebebe9" style="" class=""/><path d="m450.349 264.775-51.349-9.591a39.916 39.916 0 0 0 -10.747-19.522 40.524 40.524 0 0 0 -13.857-8.949l11.781-27.49a71.618 71.618 0 0 0 5.823-28.362v-10.861a32 32 0 0 0 0-64v-37.578a42.423 42.423 0 0 0 -42.422-42.422h-109.578a8 8 0 0 0 -8 8 47.743 47.743 0 0 0 10.175 29.5 61.455 61.455 0 0 0 -10.175 34.5v8a32.032 32.032 0 0 0 -3.339.175 247.21 247.21 0 0 0 -12.506-74.68 8 8 0 0 0 -7.5-5.489h-.094a8 8 0 0 0 -7.535 5.313l-49.026 137.5-49.024-137.506a8 8 0 0 0 -7.535-5.313h-.1a8 8 0 0 0 -7.5 5.506 249.292 249.292 0 0 0 -.828 153.7l27.752 87.921-14.53 40.853c-23.777.286-45.232 15.612-54.269 39.249l-25.608 67.138a64.819 64.819 0 0 0 4.666 56.333c10.154 17.257 27.051 27.9 46.376 29.2q1.855.12 3.695.12c22.413 0 42.85-13.378 52.908-34.516v2.496a32.036 32.036 0 0 0 32 32h303.997a32.036 32.036 0 0 0 32-32v-144.16a56.019 56.019 0 0 0 -45.651-55.065zm29.651 134.709-75.626-4.726 37.515-18.758h38.111zm-246.265 40.706q-.3-.066-.6-.11l-56.011-8a7.941 7.941 0 0 0 -1.124-.08h-32v-56h38.111l41.889 20.944v27.056a8 8 0 0 0 8 8h32a8 8 0 0 0 8-8v-21.484l80 5.006v58.391zm-57.146-159.69 47.411-8.852v107.408l-36.422-18.211a7.994 7.994 0 0 0 -3.578-.845h-40v-40.16a40.008 40.008 0 0 1 32.589-39.34zm40.394-105.278c1.74-5.466 3.289-11.149 4.677-16.955a31.842 31.842 0 0 0 10.34 1.733v10.866a71.624 71.624 0 0 0 5.82 28.362l11.78 27.472a39.961 39.961 0 0 0 -24.6 28.485l-35.421 6.615zm37.209-110.782a47.828 47.828 0 0 0 7.694 4 210.736 210.736 0 0 1 -9.259 19.079c-1.462 2.6-3.022 5.167-4.627 7.717v-7.236a46.784 46.784 0 0 1 6.192-23.56zm92.541 7.56c.061.141.118.27.182.417l.047.1c5.179 11.353 13.082 27.2 22.382 41l-21.987 38.483h-70.714l-21.833-38.209a202.049 202.049 0 0 0 11.8-18.5 226.728 226.728 0 0 0 11.145-23.351c.745.038 68.978.06 68.978.06zm17.651 0h11.616v22.015c-4.6-7.869-8.608-15.744-11.616-22.015zm-84.014 215.06-4.905-18.805 20.054 6.685zm48.111-12.12 20.053-6.685-4.9 18.8zm7.519 112.545v-86.039l7.26 5.808a8 8 0 0 0 7.517 1.346 7.915 7.915 0 0 0 1.223-.538v78.423zm-80-146.1v174.615h-16s.056-153.351.065-153.523a23.907 23.907 0 0 1 15.935-21.092zm16 66.679a7.953 7.953 0 0 0 8.739-.809l7.261-5.809v86.038l-16-1zm32-19.418 8-6.4 8 6.4v99.875l-16-.027zm48-38.414-36.338 12.115-3.662 1.22-40-13.334v-3.22a32.025 32.025 0 0 0 7.825.987h64.349a32.033 32.033 0 0 0 7.826-.987zm24-79.371a55.68 55.68 0 0 1 -4.528 22.059l-12.592 29.38a15.983 15.983 0 0 1 -14.706 9.7h-64.349a15.982 15.982 0 0 1 -14.706-9.7l-12.592-29.381a55.709 55.709 0 0 1 -4.527-22.058v-36.738l14.751 25.815a16.034 16.034 0 0 0 13.892 8.062h70.714a16.037 16.037 0 0 0 13.893-8.062l14.75-25.815zm32-42.861a16.019 16.019 0 0 1 -16 16v-32a16.019 16.019 0 0 1 16 16zm-43.766-91.562a26.358 26.358 0 0 1 11.656 19.562h-20.045l-19.2-24h12.933a26.328 26.328 0 0 1 14.656 4.438zm-47.964-4.3 19.085 23.862h-27.51l-19.2-24s26.213.052 27.625.143zm-48.115-.138 19.2 24h-7.355a32.056 32.056 0 0 1 -30.987-24zm-36.155 88v24a16 16 0 0 1 0-32zm-24.464-69.309a231.157 231.157 0 0 1 5.095 51.855 31.939 31.939 0 0 0 -5.167 45.962c-1.6 7.549-3.51 14.9-5.731 21.878l-21.457 67.788-19.776-55.558zm-116.256 48.909a232.7 232.7 0 0 1 5.2-48.862l75.812 212.72-.53 1.715a55.765 55.765 0 0 0 -11.762 4.038v-13.211h-16v16h10.845a56.082 56.082 0 0 0 -15.875 14.549l-7.9-25a7.942 7.942 0 0 0 -.487-1.452l-28.315-89.7a235.122 235.122 0 0 1 -10.988-70.797zm-18.823 380.338c-13.949-.938-26.211-8.722-33.657-21.381a48.913 48.913 0 0 1 -3.485-42.506l25.6-67.114c7.027-18.38 24.038-29.948 42.352-28.892l1.361.194a8 8 0 0 0 8.672-5.239l9.47-26.629 4.005 12.678a7.992 7.992 0 0 0 3.153 4.21 56 56 0 0 0 -1.928 14.581v36.568a31.165 31.165 0 0 0 -2.681-5.869 28.235 28.235 0 0 0 -22.649-14.2c-12.464-.831-23.967 6.8-28.6 18.949l-25.623 67.163a31.058 31.058 0 0 0 2.234 27.01 28.233 28.233 0 0 0 22.648 14.2q.918.061 1.828.061c11.757 0 22.368-7.454 26.777-19.01l25.62-67.164c.161-.422.3-.849.446-1.275v40.973l-12.913 33.818c-7.065 18.476-24.187 30.062-42.63 28.874zm40.148-108.1-25.62 67.164c-2.118 5.553-7.2 9.055-12.607 8.687a12.3 12.3 0 0 1 -9.919-6.369 15.139 15.139 0 0 1 -1.062-13.17l25.62-67.164c2.019-5.293 6.716-8.712 11.848-8.712q.378 0 .758.025a12.3 12.3 0 0 1 9.92 6.369 15.137 15.137 0 0 1 1.062 13.173zm47.395 108.162a16.019 16.019 0 0 1 -16-16v-16h31.437l55.127 7.876 41.805 9.059 2.45.536-63.259 13.574c-.189.027-.375.061-.562.1l-3.869.853zm144 0v-4.425l8.666-1.876 7.334 1.613v4.688zm64 0v-238.6a24.382 24.382 0 0 1 8.983 5.622 23.864 23.864 0 0 1 6.952 15.461c.009.167.065 217.517.065 217.517zm112-16a16.019 16.019 0 0 1 -16 16h-47.144l-16.856-3.652v-65.832l80 5zm0-104h-40a7.994 7.994 0 0 0 -3.578.845l-36.422 18.211v-107.408l47.407 8.855a40.01 40.01 0 0 1 32.593 39.337z" fill="#000000" data-original="#000000" style="" class=""/><path d="m264 116a12 12 0 1 0 12-12 12.013 12.013 0 0 0 -12 12z" fill="#000000" data-original="#000000" style="" class=""/><path d="m348 128a12 12 0 1 0 -12-12 12.013 12.013 0 0 0 12 12z" fill="#000000" data-original="#000000" style="" class=""/><path d="m282.458 115.999h43.084v16h-43.084z" transform="matrix(.371 -.928 .928 .371 75.978 360.214)" fill="#000000" data-original="#000000" style="" class=""/><path d="m302.891 176h-14.891v16h14.891c13.9 0 27.09-3.229 37.14-9.09l-8.062-13.82c-7.529 4.391-18.127 6.91-29.078 6.91z" fill="#000000" data-original="#000000" style="" class=""/></g></g></svg>
